<svg width="326" height="322" viewBox="0 0 326 322" fill="none" xmlns="http://www.w3.org/2000/svg">
<mask id="mask0" mask-type="alpha" maskUnits="userSpaceOnUse" x="4" y="0" width="322" height="322">
<circle cx="165" cy="161" r="161" fill="#F5F6FE"/>
</mask>
<g mask="url(#mask0)">
<path d="M-52 12C-52 5.37259 -46.6274 0 -40 0H259V227C259 233.627 253.627 239 247 239H-40C-46.6274 239 -52 233.627 -52 227V12Z" fill="#F5F6FE"/>
</g>
<g clip-path="url(#clip0)">
<path d="M219.194 158.016C218.854 164.503 220.019 171.135 219.971 177.67C219.922 190.838 212.786 206.492 200.699 215.904C192.495 222.293 181.719 224.78 172.495 221.757C163.806 218.928 158.369 212.101 151.816 206.785C144.922 201.225 136.864 198.055 127.155 197.47C107.932 196.3 86.0875 202.932 70.2622 192.008C64.2428 187.863 59.5341 182.352 55.7477 176.353C50.505 168.112 47.1554 158.212 51.5729 148.019C55.7477 138.363 64.8253 130.706 68.6603 120.904C71.5244 113.588 71.1846 105.932 69.3884 99.0068C67.8836 93.1546 64.4855 88.0827 65.9904 81.4989C68.7088 69.9408 82.3496 62.528 94.0972 64.3325C103.757 65.8443 112.398 73.3546 122.01 75.6467C136.767 79.2068 150.262 69.9408 160.311 59.2606C170.214 48.8241 188.32 23.7572 205.456 28.5853C214.922 31.2675 220.214 39.9971 222.981 48.1901C226.33 58.0414 224.534 67.7463 221.961 78.2314C219.631 87.595 222.253 97.2511 227.932 104.274C231.427 108.663 237.447 111.735 239.728 117.051C242.981 124.61 235.117 128.073 229.777 133.437C223.612 139.631 219.68 148.458 219.194 158.016Z" fill="#E9EBFF"/>
<path d="M163.66 164.893H75.2136V166.453H163.66V164.893Z" fill="white"/>
<path d="M163.951 166.405H75.2136V167.965H163.951V166.405Z" fill="white"/>
<path d="M164.243 167.965H75.2136V169.526H164.243V167.965Z" fill="#E9EBFF"/>
<path d="M163.951 169.526H75.2136V171.086H163.951V169.526Z" fill="white"/>
<path d="M163.66 171.038H75.2136V172.598H163.66V171.038Z" fill="white"/>
<path d="M164.243 172.598H75.2136V174.159H164.243V172.598Z" fill="#E9EBFF"/>
<path d="M164.243 174.159H75.2136V175.719H164.243V174.159Z" fill="#E9EBFF"/>
<path d="M163.66 175.671H75.2136V177.231H163.66V175.671Z" fill="white"/>
<path d="M163.951 177.231H75.2136V178.792H163.951V177.231Z" fill="white"/>
<path d="M163.951 178.792H75.2136V180.352H163.951V178.792Z" fill="white"/>
<path d="M163.66 180.304H75.2136V181.864H163.66V180.304Z" fill="white"/>
<path d="M163.66 181.864H75.2136V183.425H163.66V181.864Z" fill="white"/>
<path d="M163.369 183.425H75.2136V184.985H163.369V183.425Z" fill="#E9EBFF"/>
<path d="M163.369 184.937H75.2136V186.497H163.369V184.937Z" fill="white"/>
<path d="M163.66 186.497H75.2136V188.058H163.66V186.497Z" fill="white"/>
<path d="M163.66 188.058H75.2136V189.618H163.66V188.058Z" fill="#E9EBFF"/>
<path opacity="0.29" d="M77.9806 165.429C77.9806 165.429 98.9514 186.887 149.825 188.399H81.4272C81.4272 188.399 79.534 188.497 77.9806 187.863C76.4272 187.18 77.9806 165.429 77.9806 165.429Z" fill="#CECECE"/>
<path d="M77.9806 165.429C77.9806 165.429 85.0194 175.573 77.9806 187.863C77.9806 187.863 62.8349 187.034 71.5728 167.916C71.5728 167.868 76.4272 162.308 77.9806 165.429Z" fill="#172284"/>
<path d="M166.573 191.472H81.4272C73.5146 191.472 67.1068 185.034 67.1068 177.085V176.11C67.1068 168.16 73.5146 161.723 81.4272 161.723H166.573C167.447 161.723 168.126 162.406 168.126 163.283C168.126 164.161 167.447 164.844 166.573 164.844H81.4272C75.2136 164.893 70.2136 169.916 70.2136 176.11V177.085C70.2136 183.279 75.2622 188.35 81.4272 188.35H166.573C167.447 188.35 168.126 189.033 168.126 189.911C168.126 190.789 167.398 191.472 166.573 191.472Z" fill="#3136B3"/>
<path d="M138.223 139.289H62.0098V140.606H138.223V139.289Z" fill="white"/>
<path d="M138.466 140.606H62.0098V141.923H138.466V140.606Z" fill="white"/>
<path d="M138.709 141.923H62.0098V143.24H138.709V141.923Z" fill="#E9EBFF"/>
<path d="M138.466 143.288H62.0098V144.605H138.466V143.288Z" fill="white"/>
<path d="M138.223 144.605H62.0098V145.922H138.223V144.605Z" fill="white"/>
<path d="M138.709 145.922H62.0098V147.239H138.709V145.922Z" fill="#E9EBFF"/>
<path d="M138.709 147.287H62.0098V148.604H138.709V147.287Z" fill="white"/>
<path d="M138.223 148.604H62.0098V149.921H138.223V148.604Z" fill="white"/>
<path d="M138.466 149.921H62.0098V151.238H138.466V149.921Z" fill="#E9EBFF"/>
<path d="M138.466 151.238H62.0098V152.554H138.466V151.238Z" fill="#E9EBFF"/>
<path d="M138.223 152.603H62.0098V153.92H138.223V152.603Z" fill="white"/>
<path d="M138.223 153.92H62.0098V155.237H138.223V153.92Z" fill="white"/>
<path d="M137.932 155.237H62.0098V156.554H137.932V155.237Z" fill="#E9EBFF"/>
<path d="M137.932 156.602H62.0098V157.919H137.932V156.602Z" fill="white"/>
<path d="M138.223 157.919H62.0098V159.236H138.223V157.919Z" fill="white"/>
<path d="M138.223 159.236H62.0098V160.552H138.223V159.236Z" fill="#E9EBFF"/>
<path opacity="0.28" d="M64.6311 137.826C64.6311 137.826 84.7282 158.407 133.466 159.821H67.9321C67.9321 159.821 66.136 159.918 64.6311 159.284C63.1263 158.65 64.6311 137.826 64.6311 137.826Z" fill="#CECECE"/>
<path d="M64.3884 139.728C64.3884 139.728 70.4563 148.458 64.3884 159.041C64.3884 159.041 51.3787 158.358 58.8544 141.874C58.8544 141.874 63.0291 137.095 64.3884 139.728Z" fill="#4148EF"/>
<path d="M140.699 162.211H67.3495C60.5534 162.211 55.0194 156.651 55.0194 149.823V148.994C55.0194 142.167 60.5534 136.607 67.3495 136.607H140.699C141.427 136.607 142.058 137.192 142.058 137.973C142.058 138.753 141.476 139.338 140.699 139.338H67.3495C62.0097 139.338 57.6893 143.679 57.6893 149.043V149.872C57.6893 155.237 62.0097 159.577 67.3495 159.577H140.699C141.427 159.577 142.058 160.162 142.058 160.943C142.01 161.625 141.427 162.211 140.699 162.211Z" fill="#8C96EF"/>
<path d="M159.485 113.686H83.2719V115.003H159.485V113.686Z" fill="white"/>
<path d="M159.728 115.003H83.2719V116.32H159.728V115.003Z" fill="white"/>
<path d="M159.971 116.32H83.2719V117.636H159.971V116.32Z" fill="#E9EBFF"/>
<path d="M159.728 117.685H83.2719V119.002H159.728V117.685Z" fill="white"/>
<path d="M159.485 119.002H83.2719V120.319H159.485V119.002Z" fill="#E9EBFF"/>
<path d="M159.971 120.319H83.2719V121.635H159.971V120.319Z" fill="white"/>
<path d="M159.971 121.635H83.2719V122.952H159.971V121.635Z" fill="white"/>
<path d="M159.485 123.001H83.2719V124.318H159.485V123.001Z" fill="white"/>
<path d="M159.728 124.318H83.2719V125.634H159.728V124.318Z" fill="white"/>
<path d="M159.728 125.634H83.2719V126.951H159.728V125.634Z" fill="white"/>
<path d="M159.485 127H83.2719V128.317H159.485V127Z" fill="white"/>
<path d="M159.485 128.317H83.2719V129.633H159.485V128.317Z" fill="white"/>
<path d="M159.194 129.633H83.2719V130.95H159.194V129.633Z" fill="#E9EBFF"/>
<path d="M159.194 130.95H83.2719V132.267H159.194V130.95Z" fill="#E9EBFF"/>
<path d="M159.485 132.316H83.2719V133.632H159.485V132.316Z" fill="white"/>
<path d="M159.485 133.632H83.2719V134.949H159.485V133.632Z" fill="#E9EBFF"/>
<path opacity="0.28" d="M84.8737 113.296C84.8737 113.296 104.048 132.901 150.553 134.266H88.0291C88.0291 134.266 86.33 134.364 84.8737 133.779C83.466 133.193 84.8737 113.296 84.8737 113.296Z" fill="#CECECE"/>
<path d="M85.6505 114.125C85.6505 114.125 91.7184 122.854 85.6505 133.437C85.6505 133.437 72.6407 132.754 80.1165 116.271C80.1165 116.271 84.2912 111.491 85.6505 114.125Z" fill="#3136B3"/>
<path d="M161.961 136.607H88.6116C81.8155 136.607 76.2815 131.048 76.2815 124.22V123.391C76.2815 116.563 81.8155 111.004 88.6116 111.004H161.961C162.689 111.004 163.32 111.589 163.32 112.369C163.32 113.15 162.738 113.735 161.961 113.735H88.6116C83.2718 113.735 78.9514 118.075 78.9514 123.44V124.269C78.9514 129.633 83.2718 133.974 88.6116 133.974H161.961C162.689 133.974 163.32 134.559 163.32 135.339C163.272 135.973 162.689 136.607 161.961 136.607Z" fill="#4148EF"/>
<path opacity="0.28" d="M122.204 94.325L138.515 182.644L151.67 195.714L122.204 94.325Z" fill="#0C0C96"/>
<path d="M148.903 191.715C148.903 191.715 150.505 194.934 151.67 195.763C152.835 196.592 150.65 190.447 150.65 190.447L148.903 191.715Z" fill="#3136B3"/>
<path d="M126.427 87.8876L199.874 85.8881L237.155 175.232L154.34 187.18L126.427 87.8876Z" fill="url(#paint0_linear)"/>
<path d="M233.699 177.071L156.293 185.971L156.376 186.698L233.782 177.798L233.699 177.071Z" fill="white"/>
<path d="M233.99 177.794L156.343 186.721L156.425 187.448L234.073 178.52L233.99 177.794Z" fill="white"/>
<path d="M234.329 178.51L156.441 187.465L156.524 188.192L234.412 179.237L234.329 178.51Z" fill="#E9EBFF"/>
<path d="M234.187 179.302L156.54 188.23L156.622 188.957L234.27 180.029L234.187 179.302Z" fill="white"/>
<path d="M234.039 180.046L156.633 188.946L156.716 189.673L234.122 180.773L234.039 180.046Z" fill="white"/>
<path d="M234.574 180.755L156.685 189.71L156.768 190.436L234.657 181.481L234.574 180.755Z" fill="#E9EBFF"/>
<path d="M234.669 181.485L156.781 190.44L156.864 191.167L234.752 182.212L234.669 181.485Z" fill="#E9EBFF"/>
<path d="M234.284 182.29L156.877 191.19L156.96 191.917L234.366 183.017L234.284 182.29Z" fill="white"/>
<path d="M234.623 183.007L156.976 191.935L157.058 192.661L234.706 183.734L234.623 183.007Z" fill="white"/>
<path d="M234.671 183.743L157.023 192.67L157.106 193.397L234.753 184.47L234.671 183.743Z" fill="white"/>
<path d="M234.528 184.535L157.122 193.435L157.205 194.162L234.611 185.262L234.528 184.535Z" fill="white"/>
<path d="M234.624 185.265L157.218 194.165L157.3 194.892L234.707 185.992L234.624 185.265Z" fill="white"/>
<path d="M234.433 186.061L157.316 194.927L157.399 195.654L234.516 186.788L234.433 186.061Z" fill="#E9EBFF"/>
<path d="M234.481 186.797L157.364 195.663L157.447 196.39L234.563 187.523L234.481 186.797Z" fill="white"/>
<path d="M234.868 187.51L157.462 196.409L157.545 197.136L234.951 188.237L234.868 187.51Z" fill="white"/>
<path d="M234.964 188.24L157.558 197.14L157.641 197.866L235.047 188.967L234.964 188.24Z" fill="#E9EBFF"/>
<path opacity="0.29" d="M158.757 185.961C158.757 185.961 178.272 194.154 222.883 189.765L163.029 196.641C163.029 196.641 161.378 196.885 159.971 196.738C158.563 196.592 158.757 185.961 158.757 185.961Z" fill="#CECECE"/>
<path d="M158.757 185.961C158.757 185.961 165.456 190.106 159.971 196.738C159.971 196.738 146.718 197.86 153.272 187.814C153.272 187.814 157.204 184.644 158.757 185.961Z" fill="#172284"/>
<path d="M237.689 189.618L163.175 198.202C156.281 198.982 150.31 196.543 149.874 192.739L149.825 192.252C149.388 188.448 154.679 184.693 161.573 183.912L236.039 175.28C236.767 175.183 237.446 175.476 237.495 175.866C237.543 176.256 236.961 176.695 236.233 176.792L161.718 185.375C156.33 186.009 152.204 188.936 152.543 191.91L152.592 192.398C152.932 195.373 157.592 197.324 163.029 196.69L237.543 188.107C238.272 188.009 238.951 188.302 239 188.692C239 189.131 238.417 189.521 237.689 189.618Z" fill="#3136B3"/>
<path d="M237.398 175.134L237.495 175.914L235.116 175.427L237.398 175.134Z" fill="#3136B3"/>
<path d="M132.227 87.6926L127.301 87.6925C123.757 88.3265 121.476 91.9354 122.447 95.4467L148.903 191.715L158.757 184.4L132.227 87.6926Z" fill="#3136B3"/>
<path d="M165.227 134.999L163.416 135.071L160.06 127.038L161.87 126.966L165.227 134.999ZM169.456 134.833L167.646 134.904L164.289 126.871L166.1 126.8L169.456 134.833ZM175.236 127.801L172.694 127.902L175.491 134.595L173.686 134.666L170.889 127.973L168.347 128.073L167.787 126.733L174.676 126.462L175.236 127.801ZM184.692 131.306C184.88 131.756 184.991 132.166 185.024 132.537C185.055 132.903 185.003 133.222 184.869 133.494C184.737 133.761 184.519 133.973 184.214 134.127C183.909 134.282 183.514 134.369 183.031 134.388C182.811 134.396 182.587 134.392 182.361 134.375C182.14 134.361 181.9 134.333 181.643 134.29C181.591 134.127 181.539 133.964 181.487 133.801C181.436 133.638 181.384 133.475 181.332 133.312C181.307 133.223 181.316 133.152 181.358 133.097C181.399 133.04 181.479 133.008 181.599 133.004C181.667 133.001 181.757 133.009 181.871 133.027C181.988 133.044 182.124 133.05 182.28 133.044C182.496 133.036 182.672 133.001 182.809 132.939C182.946 132.877 183.042 132.782 183.097 132.652C183.153 132.522 183.165 132.357 183.134 132.155C183.105 131.95 183.03 131.704 182.91 131.416L180.74 126.223L182.539 126.152L184.692 131.306ZM187.227 127.29L188.09 129.354L190.991 129.24L191.516 130.497L188.615 130.611L189.496 132.72L193.225 132.573L193.769 133.874L188.229 134.093L184.873 126.06L190.412 125.842L190.956 127.143L187.227 127.29ZM194.712 126.995L195.574 129.06L198.476 128.945L199.001 130.202L196.1 130.316L196.981 132.425L200.71 132.279L201.254 133.579L195.714 133.798L192.357 125.765L197.897 125.547L198.441 126.848L194.712 126.995ZM172.258 147.806C172.507 147.796 172.706 147.76 172.852 147.698C172.999 147.636 173.103 147.557 173.165 147.46C173.229 147.364 173.258 147.254 173.249 147.129C173.245 147.004 173.213 146.872 173.156 146.734C173.095 146.589 173.016 146.461 172.919 146.349C172.82 146.234 172.7 146.139 172.56 146.063C172.419 145.985 172.255 145.927 172.067 145.891C171.882 145.854 171.672 145.84 171.435 145.85L170.081 145.903L170.899 147.859L172.258 147.806ZM168.917 143.117L169.723 145.045L170.792 145.003C171.252 144.985 171.566 144.894 171.735 144.731C171.907 144.568 171.923 144.319 171.783 143.984C171.638 143.636 171.428 143.393 171.153 143.254C170.878 143.114 170.514 143.054 170.061 143.072L168.917 143.117ZM169.66 142.112C170.133 142.093 170.555 142.119 170.926 142.189C171.297 142.258 171.622 142.366 171.899 142.511C172.18 142.657 172.416 142.837 172.607 143.051C172.798 143.265 172.951 143.509 173.065 143.783C173.131 143.94 173.169 144.092 173.179 144.238C173.188 144.382 173.166 144.519 173.112 144.649C173.06 144.776 172.974 144.893 172.853 145.001C172.736 145.109 172.58 145.203 172.387 145.282C173.465 145.449 174.168 145.925 174.496 146.709C174.614 146.992 174.665 147.256 174.649 147.5C174.633 147.745 174.549 147.959 174.4 148.143C174.248 148.324 174.03 148.471 173.745 148.582C173.46 148.693 173.107 148.757 172.687 148.774L169.96 148.881L167.172 142.21L169.66 142.112ZM182.632 144.991C182.836 145.48 182.938 145.937 182.936 146.363C182.936 146.785 182.84 147.154 182.647 147.471C182.455 147.788 182.17 148.042 181.792 148.232C181.413 148.419 180.949 148.523 180.399 148.545C179.853 148.566 179.32 148.501 178.799 148.35C178.278 148.195 177.792 147.972 177.342 147.68C176.895 147.388 176.496 147.038 176.146 146.63C175.795 146.219 175.517 145.769 175.313 145.28C175.108 144.791 175.008 144.335 175.011 143.913C175.012 143.488 175.11 143.116 175.302 142.799C175.498 142.482 175.785 142.23 176.164 142.043C176.542 141.853 177.004 141.748 177.55 141.726C177.917 141.712 178.278 141.738 178.634 141.805C178.99 141.869 179.332 141.968 179.663 142.102C179.991 142.233 180.306 142.397 180.605 142.595C180.906 142.79 181.184 143.01 181.44 143.256C181.695 143.502 181.923 143.772 182.123 144.064C182.326 144.356 182.496 144.665 182.632 144.991ZM181.258 145.045C181.105 144.679 180.915 144.354 180.687 144.069C180.459 143.781 180.204 143.539 179.922 143.344C179.641 143.149 179.336 143.003 179.008 142.907C178.684 142.81 178.345 142.769 177.992 142.782C177.639 142.796 177.343 142.863 177.105 142.982C176.87 143.1 176.695 143.265 176.58 143.476C176.468 143.687 176.42 143.94 176.436 144.237C176.45 144.53 176.534 144.859 176.687 145.225C176.839 145.591 177.03 145.918 177.259 146.206C177.486 146.491 177.741 146.731 178.022 146.927C178.305 147.119 178.609 147.263 178.934 147.36C179.262 147.456 179.603 147.497 179.956 147.484C180.309 147.47 180.603 147.403 180.838 147.285C181.076 147.166 181.251 147.003 181.364 146.795C181.476 146.584 181.525 146.332 181.511 146.039C181.495 145.743 181.411 145.411 181.258 145.045ZM191.301 144.65C191.506 145.139 191.607 145.596 191.605 146.021C191.606 146.443 191.509 146.813 191.317 147.13C191.124 147.447 190.839 147.7 190.462 147.89C190.083 148.077 189.618 148.181 189.069 148.203C188.523 148.225 187.989 148.16 187.469 148.008C186.947 147.854 186.461 147.63 186.011 147.339C185.564 147.047 185.166 146.697 184.816 146.289C184.464 145.877 184.186 145.427 183.982 144.938C183.778 144.449 183.677 143.993 183.68 143.571C183.682 143.146 183.779 142.775 183.971 142.458C184.167 142.14 184.455 141.888 184.834 141.702C185.211 141.512 185.673 141.406 186.22 141.384C186.586 141.37 186.947 141.396 187.304 141.464C187.659 141.528 188.002 141.627 188.332 141.761C188.661 141.891 188.975 142.056 189.274 142.253C189.576 142.448 189.854 142.668 190.109 142.915C190.364 143.161 190.592 143.43 190.792 143.722C190.995 144.014 191.165 144.323 191.301 144.65ZM189.927 144.704C189.774 144.338 189.584 144.012 189.357 143.727C189.128 143.439 188.873 143.198 188.592 143.002C188.311 142.807 188.006 142.661 187.678 142.565C187.353 142.468 187.014 142.427 186.661 142.441C186.308 142.455 186.012 142.521 185.774 142.64C185.539 142.759 185.365 142.923 185.25 143.134C185.138 143.345 185.09 143.598 185.105 143.895C185.119 144.188 185.203 144.518 185.356 144.884C185.509 145.25 185.7 145.577 185.928 145.865C186.156 146.15 186.41 146.39 186.691 146.585C186.975 146.777 187.279 146.921 187.604 147.018C187.932 147.115 188.272 147.156 188.625 147.142C188.978 147.128 189.272 147.062 189.507 146.943C189.745 146.824 189.921 146.661 190.034 146.453C190.146 146.243 190.194 145.991 190.18 145.697C190.165 145.401 190.08 145.07 189.927 144.704ZM194.2 143.987L194.514 143.974C194.641 143.969 194.739 143.95 194.81 143.916C194.879 143.879 194.929 143.823 194.959 143.75L195.979 141.342C196.021 141.24 196.079 141.169 196.154 141.129C196.231 141.085 196.339 141.061 196.479 141.055L197.638 141.009L196.363 143.878C196.291 144.053 196.193 144.179 196.069 144.255C196.194 144.288 196.314 144.336 196.429 144.401C196.546 144.462 196.667 144.544 196.792 144.649L200.605 147.673L199.421 147.72C199.261 147.726 199.133 147.711 199.036 147.674C198.942 147.634 198.851 147.575 198.764 147.497L195.691 145.114C195.593 145.034 195.496 144.978 195.398 144.948C195.301 144.917 195.174 144.905 195.017 144.911L194.593 144.928L195.819 147.862L194.475 147.915L191.687 141.244L193.031 141.191L194.2 143.987ZM203.491 142.012C203.478 142.078 203.455 142.128 203.421 142.16C203.389 142.19 203.34 142.206 203.273 142.208C203.203 142.211 203.117 142.191 203.015 142.148C202.914 142.102 202.795 142.052 202.657 141.998C202.52 141.944 202.365 141.897 202.192 141.857C202.022 141.814 201.833 141.796 201.627 141.804C201.44 141.811 201.286 141.839 201.164 141.888C201.041 141.933 200.946 141.995 200.881 142.073C200.818 142.15 200.786 142.242 200.783 142.349C200.778 142.452 200.802 142.565 200.853 142.688C200.919 142.845 201.02 142.974 201.157 143.075C201.298 143.175 201.461 143.26 201.649 143.327C201.836 143.395 202.042 143.454 202.266 143.505C202.49 143.555 202.722 143.61 202.96 143.67C203.197 143.726 203.434 143.795 203.671 143.876C203.907 143.954 204.131 144.058 204.344 144.187C204.556 144.313 204.749 144.471 204.923 144.661C205.101 144.851 205.247 145.085 205.363 145.361C205.489 145.663 205.551 145.948 205.548 146.217C205.547 146.483 205.48 146.718 205.345 146.924C205.213 147.126 205.016 147.29 204.754 147.416C204.49 147.539 204.159 147.608 203.759 147.624C203.529 147.633 203.294 147.62 203.053 147.586C202.813 147.555 202.573 147.505 202.335 147.436C202.099 147.367 201.869 147.283 201.645 147.182C201.42 147.082 201.21 146.968 201.015 146.841L201.161 146.231C201.176 146.186 201.204 146.149 201.246 146.119C201.287 146.086 201.337 146.069 201.397 146.066C201.48 146.063 201.583 146.092 201.707 146.153C201.829 146.21 201.973 146.275 202.139 146.347C202.304 146.418 202.488 146.483 202.692 146.541C202.897 146.595 203.125 146.617 203.375 146.607C203.758 146.592 204.02 146.498 204.16 146.323C204.299 146.146 204.303 145.9 204.172 145.587C204.099 145.411 203.991 145.27 203.848 145.163C203.708 145.056 203.545 144.969 203.358 144.901C203.169 144.831 202.964 144.773 202.742 144.729C202.52 144.684 202.293 144.635 202.061 144.582C201.829 144.528 201.595 144.463 201.359 144.384C201.123 144.306 200.898 144.201 200.684 144.069C200.47 143.936 200.271 143.769 200.088 143.567C199.908 143.362 199.754 143.107 199.626 142.802C199.525 142.559 199.478 142.32 199.484 142.085C199.495 141.851 199.562 141.64 199.688 141.454C199.813 141.268 200 141.115 200.248 140.996C200.496 140.876 200.81 140.809 201.19 140.794C201.616 140.778 202.035 140.824 202.446 140.932C202.857 141.041 203.235 141.201 203.581 141.413L203.491 142.012Z" fill="#F5F6FE"/>
<path d="M178.012 101.223L180.822 109.067C181.116 109.888 180.972 110.694 180.42 111.309C179.869 111.923 178.956 112.296 177.882 112.344L175.987 112.429C169.396 112.724 162.593 108.985 160.53 104.009C160.474 103.875 160.423 103.742 160.375 103.608L159.812 102.039C159.518 101.218 159.663 100.411 160.214 99.7965C160.765 99.1819 161.678 98.8096 162.752 98.7615L172.854 98.309C173.928 98.2609 175.074 98.5409 176.042 99.0874C177.009 99.634 177.718 100.402 178.012 101.223Z" fill="#0EFFB4"/>
<path d="M176.916 112.387L175.99 112.429C169.399 112.724 162.597 108.985 160.534 104.01L160.534 103.995C160.534 103.995 161.831 106.127 162.918 107.015C163.232 107.272 163.578 107.504 163.926 107.746C164.465 108.12 165.476 108.442 165.87 108.482C166.266 108.546 168.121 108.666 169.051 109.032C169.348 109.137 170.16 109.564 170.587 109.833C170.613 109.849 170.636 109.867 170.656 109.886C170.786 110.008 171.184 110.372 171.363 110.588C171.368 110.595 171.374 110.601 171.38 110.608C171.568 110.813 172.189 111.38 172.569 111.563C172.703 111.639 173.899 112.221 175.105 112.224C175.135 112.223 175.166 112.225 175.196 112.228C175.768 112.284 176.916 112.387 176.916 112.387Z" fill="#41E6B3"/>
<path d="M173.883 102.832L170.277 106.85C170.149 106.993 169.937 107.079 169.687 107.091C169.438 107.102 169.171 107.037 168.947 106.91L166.234 105.378C166.12 105.316 166.019 105.239 165.938 105.154C165.856 105.068 165.796 104.975 165.761 104.879C165.725 104.783 165.715 104.687 165.73 104.596C165.746 104.506 165.787 104.422 165.851 104.35C165.916 104.278 166.002 104.22 166.105 104.179C166.208 104.138 166.326 104.114 166.451 104.109C166.577 104.105 166.708 104.119 166.837 104.152C166.965 104.185 167.089 104.236 167.2 104.301L169.066 105.356L172.189 101.876C172.318 101.735 172.53 101.65 172.778 101.64C173.027 101.63 173.291 101.695 173.515 101.821C173.738 101.947 173.902 102.124 173.971 102.314C174.041 102.504 174.009 102.69 173.884 102.833L173.883 102.832Z" fill="white"/>
<path d="M175.99 112.429L167.784 112.796C166.71 112.844 165.563 112.564 164.596 112.018C163.629 111.471 162.92 110.703 162.626 109.882L160.378 103.608C160.426 103.742 160.478 103.877 160.533 104.008C162.596 108.985 169.399 112.724 175.99 112.429Z" fill="#077483"/>
<path d="M175.99 112.429L171.602 112.625C169.516 112.719 167.288 112.175 165.408 111.113C163.529 110.051 162.152 108.558 161.58 106.963L160.378 103.608C160.426 103.742 160.478 103.877 160.533 104.008C162.596 108.985 169.399 112.724 175.99 112.429Z" fill="#04A396"/>
<path opacity="0.21" d="M199.874 85.8881L132.256 87.7234L143.466 128.658L199.874 85.8881Z" fill="#E9EBFF"/>
<path opacity="0.21" d="M147.301 142.606L204.097 95.983L205.747 99.9333L148.563 147.287L147.301 142.606Z" fill="#E9EBFF"/>
<path d="M146.589 216.727C147.396 213.432 145.39 210.103 142.11 209.293C138.829 208.483 135.516 210.498 134.71 213.794C133.904 217.089 135.909 220.418 139.19 221.228C142.47 222.038 145.783 220.023 146.589 216.727Z" fill="#E9EBFF"/>
<path d="M57.6894 85.3516C57.6894 86.8146 56.4758 88.0338 55.0195 88.0338C53.5632 88.0338 52.3496 86.8146 52.3496 85.3516C52.3496 83.8885 53.5632 82.6693 55.0195 82.6693C56.5244 82.6693 57.6894 83.8885 57.6894 85.3516Z" fill="#E9EBFF"/>
<path d="M237.414 90.4595C237.731 88.4921 236.4 86.639 234.442 86.3205C232.483 86.002 230.639 87.3387 230.322 89.3061C230.005 91.2735 231.335 93.1266 233.294 93.4451C235.252 93.7636 237.097 92.4269 237.414 90.4595Z" fill="#E9EBFF"/>
<path d="M226.379 203.371C228.363 203.371 229.971 201.755 229.971 199.762C229.971 197.769 228.363 196.153 226.379 196.153C224.395 196.153 222.786 197.769 222.786 199.762C222.786 201.755 224.395 203.371 226.379 203.371Z" fill="#8C96EF"/>
<path d="M237.155 100.567C238.147 100.567 238.952 99.7595 238.952 98.7629C238.952 97.7664 238.147 96.9585 237.155 96.9585C236.164 96.9585 235.359 97.7664 235.359 98.7629C235.359 99.7595 236.164 100.567 237.155 100.567Z" fill="#8C96EF"/>
<path d="M49.5825 103.152C52.6657 103.152 55.165 100.641 55.165 97.5437C55.165 94.4463 52.6657 91.9353 49.5825 91.9353C46.4994 91.9353 44 94.4463 44 97.5437C44 100.641 46.4994 103.152 49.5825 103.152Z" fill="#8C96EF"/>
<path d="M146.718 63.357C150.365 63.357 153.32 60.3876 153.32 56.7245C153.32 53.0615 150.365 50.092 146.718 50.092C143.072 50.092 140.116 53.0615 140.116 56.7245C140.116 60.3876 143.072 63.357 146.718 63.357Z" fill="#E9EBFF"/>
<path d="M157.107 46.1419C157.107 47.5561 155.942 48.7266 154.534 48.7266C153.126 48.7266 151.961 47.5561 151.961 46.1419C151.961 44.7276 153.126 43.5571 154.534 43.5571C155.99 43.5571 157.107 44.6788 157.107 46.1419Z" fill="#E9EBFF"/>
</g>
<defs>
<linearGradient id="paint0_linear" x1="126.427" y1="85.8881" x2="227.319" y2="196.178" gradientUnits="userSpaceOnUse">
<stop stop-color="#6B73FF"/>
<stop offset="1" stop-color="#000DFF"/>
</linearGradient>
<clipPath id="clip0">
<rect width="200" height="196" fill="white" transform="translate(44 28)"/>
</clipPath>
</defs>
</svg>
