<svg width="669" height="598" viewBox="0 0 669 598" fill="none" xmlns="http://www.w3.org/2000/svg" xmlns:xlink="http://www.w3.org/1999/xlink">
<path opacity="0.1" d="M547.129 494.62C547.129 494.62 547.129 494.428 547.321 494.428C547.512 494.046 547.704 493.472 547.704 493.089C547.704 492.898 547.704 492.706 547.896 492.515C548.087 492.133 548.087 491.559 548.279 491.176C548.279 490.985 548.279 490.793 548.471 490.411C548.471 490.028 548.663 489.646 548.663 489.072C548.663 488.88 548.663 488.498 548.663 488.115C548.663 487.732 548.663 487.35 548.663 486.967C548.663 486.585 548.663 486.202 548.663 485.819C548.663 485.437 548.663 485.054 548.663 484.672C548.663 484.289 548.471 483.715 548.471 483.332C548.471 483.141 548.471 482.758 548.279 482.567C548.087 481.802 547.896 481.037 547.704 480.271L420.991 29.7416C420.799 29.1677 420.607 28.5937 420.416 28.0198C420.032 26.872 419.457 25.7241 418.69 24.5763C417.348 22.4719 415.623 20.3675 413.514 18.6457C412.556 17.8805 411.406 17.1153 410.256 16.35C406.23 14.0544 401.629 12.7152 397.028 12.9065L296.003 17.6892L194.977 22.4719C194.21 22.4719 193.444 22.6632 192.677 22.6632C192.485 22.6632 192.293 22.6632 192.102 22.8545C191.527 23.0458 191.143 23.0458 190.568 23.2371C190.376 23.2371 190.185 23.4284 189.801 23.4284C189.226 23.6197 188.843 23.811 188.268 24.0024C188.076 24.0024 187.884 24.1937 187.693 24.1937C187.117 24.5763 186.351 24.7676 185.776 25.1502C185.2 25.5328 184.625 25.9154 184.242 26.2981C184.05 26.4894 184.05 26.4894 183.859 26.6807C183.475 27.0633 183.092 27.4459 182.708 27.8285C182.517 28.0198 182.517 28.0198 182.325 28.2111C181.942 28.5937 181.558 29.1677 181.175 29.5503C181.175 29.5503 181.175 29.5503 180.983 29.7416C180.6 30.3155 180.216 30.8894 179.833 31.4634C179.833 31.6547 179.641 31.6547 179.641 31.846C179.641 32.0373 179.449 32.0373 179.449 32.2286C179.449 32.4199 179.258 32.4199 179.258 32.6112C179.258 32.8025 179.066 32.8025 179.066 32.9938C179.066 33.1851 178.874 33.1851 178.874 33.3764C178.874 33.5677 178.683 33.5677 178.683 33.7591C178.683 33.9504 178.491 33.9504 178.491 34.1417C178.491 34.333 178.299 34.333 178.299 34.5243C178.299 34.7156 178.108 34.7156 178.108 34.9069C178.108 35.0982 177.916 35.0982 177.916 35.2895C177.916 35.4808 177.724 35.4808 177.724 35.6721C177.724 35.8634 177.533 35.8634 177.533 36.0547C177.533 36.2461 177.341 36.2461 177.341 36.4374C177.341 36.6287 177.149 36.6287 177.149 36.82C177.149 37.0113 176.957 37.0113 176.957 37.2026C176.957 37.3939 176.766 37.3939 176.766 37.5852C176.766 37.7765 176.574 37.7765 176.574 37.9678C176.574 38.1591 176.382 38.1591 176.382 38.3504C176.382 38.5417 176.191 38.5417 176.191 38.7331C176.191 38.9244 175.999 38.9244 175.999 39.1157C175.999 39.307 175.807 39.307 175.807 39.4983C175.807 39.6896 175.616 39.6896 175.616 39.8809C175.616 40.0722 175.424 40.0722 175.424 40.2635C175.424 40.4548 175.232 40.4548 175.232 40.6461C175.232 40.8374 175.04 40.8374 175.04 41.0288C175.04 41.2201 174.849 41.2201 174.849 41.4114C174.849 41.6027 174.657 41.6027 174.657 41.794C174.657 41.9853 174.465 41.9853 174.465 42.1766C174.465 42.3679 174.274 42.3679 174.274 42.5592C174.274 42.7505 174.082 42.7505 174.082 42.9418C174.082 43.1331 173.89 43.1331 173.89 43.3244C173.89 43.5158 173.699 43.5157 173.699 43.7071C173.699 43.8984 173.507 43.8984 173.507 44.0897C173.507 44.281 173.315 44.281 173.315 44.4723C173.315 44.6636 173.123 44.6636 173.123 44.8549C173.123 45.0462 172.932 45.0462 172.932 45.2375C172.932 45.4288 172.74 45.4288 172.74 45.6201C172.74 45.8114 172.548 45.8114 172.548 46.0028C172.548 46.1941 172.357 46.1941 172.357 46.3854C172.357 46.5767 172.165 46.5767 172.165 46.768C170.44 49.8289 169.865 53.4638 170.631 57.2899L263.797 517.959C266.481 531.159 278.75 541.107 291.21 540.151L523.358 521.785C530.259 521.211 535.244 517.385 537.927 511.837C537.927 511.646 538.119 511.646 538.119 511.455C538.119 511.263 538.311 511.263 538.311 511.072C538.311 510.881 538.503 510.881 538.503 510.689C538.503 510.498 538.694 510.498 538.694 510.307C538.694 510.115 538.886 510.115 538.886 509.924C538.886 509.733 539.078 509.733 539.078 509.542C539.078 509.35 539.269 509.35 539.269 509.159C539.269 508.968 539.461 508.968 539.461 508.776C539.461 508.585 539.653 508.585 539.653 508.394C539.653 508.202 539.844 508.202 539.844 508.011C539.844 507.82 540.036 507.82 540.036 507.629C540.036 507.437 540.228 507.437 540.228 507.246C540.228 507.055 540.419 507.055 540.419 506.863C540.419 506.672 540.611 506.672 540.611 506.481C540.611 506.289 540.803 506.289 540.803 506.098C540.803 505.907 540.995 505.907 540.995 505.715C540.995 505.524 541.186 505.524 541.186 505.333C541.186 505.141 541.378 505.141 541.378 504.95C541.378 504.759 541.57 504.759 541.57 504.568C541.57 504.376 541.761 504.376 541.761 504.185C541.761 503.994 541.953 503.994 541.953 503.802C541.953 503.611 542.145 503.611 542.145 503.42C542.145 503.228 542.336 503.228 542.336 503.037C542.336 502.846 542.528 502.846 542.528 502.654C542.528 502.463 542.72 502.463 542.72 502.272C542.72 502.08 542.912 502.081 542.912 501.889C542.912 501.698 543.103 501.698 543.103 501.507C543.103 501.315 543.295 501.315 543.295 501.124C543.295 500.933 543.487 500.933 543.487 500.741C543.487 500.55 543.678 500.55 543.678 500.359C543.678 500.167 543.87 500.167 543.87 499.976C543.87 499.785 544.062 499.785 544.062 499.593C544.062 499.402 544.253 499.402 544.253 499.211C544.253 499.02 544.445 499.02 544.445 498.828C544.445 498.637 544.637 498.637 544.637 498.446C544.637 498.254 544.829 498.254 544.829 498.063C544.829 497.872 545.02 497.872 545.02 497.68C545.02 497.489 545.212 497.489 545.212 497.298C545.212 497.107 545.404 497.107 545.404 496.915C545.404 496.724 545.595 496.724 545.595 496.533C546.554 495.767 546.746 495.193 547.129 494.62Z" fill="#272727"/>
<path d="M543.487 506.098C543.487 505.907 543.678 505.907 543.678 505.716C543.678 505.524 543.87 505.524 543.87 505.333C543.87 505.142 544.062 505.142 544.062 504.95C544.062 504.759 544.253 504.759 544.253 504.568C544.253 504.377 544.445 504.376 544.445 504.185C544.445 503.994 544.637 503.994 544.637 503.803C544.637 503.611 544.828 503.611 544.828 503.42C544.828 503.229 545.02 503.229 545.02 503.037C545.02 502.846 545.212 502.846 545.212 502.655C545.212 502.463 545.404 502.463 545.404 502.272C545.404 502.081 545.595 502.081 545.595 501.89C545.595 501.698 545.787 501.698 545.787 501.507C545.787 501.316 545.979 501.316 545.979 501.124C545.979 500.933 546.17 500.933 546.17 500.742C546.17 500.55 546.362 500.55 546.362 500.359C546.362 500.168 546.554 500.168 546.554 499.976C546.554 499.785 546.745 499.785 546.745 499.594C546.745 499.402 546.937 499.403 546.937 499.211C546.937 499.02 547.129 499.02 547.129 498.829C547.129 498.637 547.321 498.637 547.321 498.446C547.321 498.255 547.512 498.255 547.512 498.063C547.512 497.872 547.704 497.872 547.704 497.681C547.704 497.489 547.896 497.489 547.896 497.298C547.896 497.107 548.087 497.107 548.087 496.916C548.087 496.724 548.279 496.724 548.279 496.533C548.279 496.342 548.471 496.342 548.471 496.15C548.471 495.959 548.662 495.959 548.662 495.768C548.662 495.576 548.854 495.576 548.854 495.385C548.854 495.194 549.046 495.194 549.046 495.002C549.046 494.811 549.238 494.811 549.238 494.62C549.238 494.428 549.429 494.429 549.429 494.237C549.429 494.046 549.621 494.046 549.621 493.855C549.621 493.663 549.813 493.663 549.813 493.472C549.813 493.281 550.004 493.281 550.004 493.089C550.004 492.898 550.196 492.898 550.196 492.707C550.196 492.515 550.388 492.515 550.388 492.324C550.388 492.133 550.579 492.133 550.579 491.941C550.579 491.75 550.771 491.75 550.771 491.559C550.771 491.368 550.963 491.368 550.963 491.176C553.072 486.776 553.647 481.228 551.921 475.489L426.358 24.194C423.674 14.4373 412.748 6.78499 402.204 7.35891L200.153 16.9243C193.252 17.3069 187.884 20.7505 185.392 25.7245C185.392 25.9158 185.2 25.9158 185.2 26.1071C185.2 26.2984 185.009 26.2984 185.009 26.4897C185.009 26.681 184.817 26.681 184.817 26.8723C184.817 27.0636 184.625 27.0636 184.625 27.2549C184.625 27.4462 184.434 27.4462 184.434 27.6375C184.434 27.8288 184.242 27.8288 184.242 28.0202C184.242 28.2115 184.05 28.2115 184.05 28.4028C184.05 28.5941 183.858 28.5941 183.858 28.7854C183.858 28.9767 183.667 28.9767 183.667 29.168C183.667 29.3593 183.475 29.3593 183.475 29.5506C183.475 29.7419 183.283 29.7419 183.283 29.9332C183.283 30.1245 183.092 30.1245 183.092 30.3158C183.092 30.5071 182.9 30.5071 182.9 30.6985C182.9 30.8898 182.708 30.8898 182.708 31.0811C182.708 31.2724 182.517 31.2724 182.517 31.4637C182.517 31.655 182.325 31.655 182.325 31.8463C182.325 32.0376 182.133 32.0376 182.133 32.2289C182.133 32.4202 181.941 32.4202 181.941 32.6115C181.941 32.8028 181.75 32.8028 181.75 32.9942C181.75 33.1855 181.558 33.1855 181.558 33.3768C181.558 33.5681 181.366 33.5681 181.366 33.7594C181.366 33.9507 181.175 33.9507 181.175 34.142C181.175 34.3333 180.983 34.3333 180.983 34.5246C180.983 34.7159 180.791 34.7159 180.791 34.9072C180.791 35.0985 180.6 35.0985 180.6 35.2898C180.6 35.4812 180.408 35.4812 180.408 35.6725C180.408 35.8638 180.216 35.8638 180.216 36.0551C180.216 36.2464 180.024 36.2464 180.024 36.4377C180.024 36.629 179.833 36.629 179.833 36.8203C179.833 37.0116 179.641 37.0116 179.641 37.2029C179.641 37.3942 179.449 37.3942 179.449 37.5855C179.449 37.7768 179.258 37.7768 179.258 37.9682C179.258 38.1595 179.066 38.1595 179.066 38.3508C179.066 38.5421 178.874 38.5421 178.874 38.7334C178.874 38.9247 178.683 38.9247 178.683 39.116C178.683 39.3073 178.491 39.3073 178.491 39.4986C178.491 39.6899 178.299 39.6899 178.299 39.8812C178.299 40.0725 178.107 40.0725 178.107 40.2638C178.107 40.4552 177.916 40.4552 177.916 40.6465C177.916 40.8378 177.724 40.8378 177.724 41.0291C175.999 44.09 175.424 47.7249 176.19 51.551L269.165 512.411C271.848 525.612 284.117 535.56 296.578 534.603L528.726 516.238C535.627 515.664 540.611 511.838 543.295 506.29C543.295 506.29 543.487 506.29 543.487 506.098Z" fill="url(#paint0_linear)"/>
<path d="M402.204 7.3584L200.153 16.9238C189.226 17.4977 182.133 25.9153 184.242 35.8633L277.791 496.15C280.475 509.35 292.744 519.298 305.204 518.342L537.352 499.976C549.429 499.019 556.331 487.732 552.688 474.723L426.358 24.1935C423.483 14.2455 412.748 6.78447 402.204 7.3584Z" fill="#272727"/>
<path d="M397.795 14.6284L208.396 23.6199C198.236 24.1938 191.527 32.4201 193.635 41.9855L285.076 486.585C287.76 499.211 299.262 508.968 310.955 508.011L527.576 490.985C538.886 490.028 545.212 479.315 541.761 466.88L420.416 31.0809C417.732 21.5155 407.572 14.2458 397.795 14.6284Z" fill="#272727"/>
<rect x="172.29" width="401.464" height="523.852" fill="url(#pattern0)"/>
<g style="mix-blend-mode:soft-light">
<path d="M537.928 486.202C500.93 469.941 465.849 448.706 436.135 420.775C368.465 357.643 314.214 279.781 275.491 206.128C242.902 144.144 226.557 80.7499 206.428 21.8271C196.46 22.5924 188.677 31.3765 192.09 41.608L284.884 486.776C287.568 499.402 299.07 509.159 310.764 508.203L527.384 491.176C531.793 490.793 535.435 489.072 537.928 486.202Z" fill="#2A2772"/>
</g>
<g style="mix-blend-mode:soft-light">
<path d="M396.25 12.292L241.932 19.5617C281.039 21.2835 319.762 22.4313 358.485 22.814C373.438 23.0053 391.266 24.3444 401.809 36.0142C405.068 39.649 407.177 43.8578 409.285 48.0666C423.855 78.1019 435.932 109.476 448.392 141.233C450.692 147.355 453.185 153.477 455.677 159.79L419.254 28.5532C416.187 19.1791 406.027 11.9094 396.25 12.292Z" fill="#4C459B"/>
</g>
<defs>
<pattern id="pattern0" patternContentUnits="objectBoundingBox" width="1" height="1">
<use xlink:href="#image0" transform="translate(-0.664122 -0.00105229) scale(0.000699688 0.000534456)"/>
</pattern>
<linearGradient id="paint0_linear" x1="175.857" y1="7.32861" x2="674.866" y2="364.151" gradientUnits="userSpaceOnUse">
<stop stop-color="#6B73FF"/>
<stop offset="1" stop-color="#000DFF"/>
</linearGradient>
</defs>
</svg>